<svg id="Grupo_146303" data-name="Grupo 146303" xmlns="http://www.w3.org/2000/svg" xmlns:xlink="http://www.w3.org/1999/xlink" width="267.941" height="267.551" viewBox="0 0 267.941 267.551">
  <defs>
    <clipPath id="clip-path">
      <rect id="Rectángulo_37884" data-name="Rectángulo 37884" width="267.941" height="267.551" fill="none"/>
    </clipPath>
    <clipPath id="clip-path-2">
      <path id="Trazado_204089" data-name="Trazado 204089" d="M138.555,0C109.563.076,79.955,9.121,55.8,27.546,3.4,67.52-14.12,144.6,14.35,196.9c14.79,27.167,37.865,40.069,46.324,44.656,51.989,28.189,126.7,19.5,170.611-28.053,22.765-24.652,36.568-58.788,36.656-91.854v-.645a111.053,111.053,0,0,0-2.734-24.469,120.917,120.917,0,0,0-13.742-34.565c-21.386-35.9-55.414-49.7-64.342-53.163A133.654,133.654,0,0,0,139.287,0Z" fill="#baeae8"/>
    </clipPath>
    <clipPath id="clip-path-4">
      <path id="Trazado_204094" data-name="Trazado 204094" d="M32.96,134.386a102.269,102.269,0,0,0,8.894,37.506c1.014-.364,2.031-.733,3.047-1.123,8.771-3.161,17.424-6.2,25.856-9.779a71.642,71.642,0,0,1-1.574-58.8c-10.495-1.147-21.055-2.013-31.427-3.748a102.328,102.328,0,0,0-4.8,35.944" fill="none"/>
    </clipPath>
    <linearGradient id="linear-gradient" x1="-0.845" y1="2.302" x2="-0.819" y2="2.302" gradientUnits="objectBoundingBox">
      <stop offset="0" stop-color="#4f52ff"/>
      <stop offset="1" stop-color="#4042e2"/>
    </linearGradient>
    <clipPath id="clip-path-5">
      <path id="Trazado_204095" data-name="Trazado 204095" d="M138.295,201.264A71.194,71.194,0,0,1,105.666,195c-4.743,9.162-9.24,18.432-14.672,27.287a102.754,102.754,0,0,0,87.373.686c-4.5-9.4-8.706-18.893-12.987-28.341a71.257,71.257,0,0,1-27.085,6.634" fill="none"/>
    </clipPath>
    <linearGradient id="linear-gradient-2" x1="-1.041" y1="1.898" x2="-1.03" y2="1.898" xlink:href="#linear-gradient"/>
    <clipPath id="clip-path-7">
      <path id="Trazado_204097" data-name="Trazado 204097" d="M130.854,27.385A102.193,102.193,0,0,0,89.072,38.321c4.741,9.231,8.834,18.653,13.192,28.02a71.727,71.727,0,0,1,44.372-7.061A174.772,174.772,0,0,0,148.754,29.7c-.024-.521-.027-1.043-.014-1.566a102.92,102.92,0,0,0-13.268-.857q-2.3,0-4.618.1" fill="none"/>
    </clipPath>
    <linearGradient id="linear-gradient-3" x1="-1.487" y1="6.151" x2="-1.47" y2="6.151" xlink:href="#linear-gradient"/>
    <clipPath id="clip-path-9">
      <path id="Trazado_204099" data-name="Trazado 204099" d="M185.192,78.827a71.236,71.236,0,0,1,20.456,39.326c10.411-1.131,20.737-2.4,31.121-3.9a102.148,102.148,0,0,0-28.042-56.11c-7.791,6.94-15.565,13.94-23.535,20.681" fill="none"/>
    </clipPath>
    <linearGradient id="linear-gradient-4" x1="-3.591" y1="3.49" x2="-3.571" y2="3.49" xlink:href="#linear-gradient"/>
    <clipPath id="clip-path-11">
      <path id="Trazado_204102" data-name="Trazado 204102" d="M111.591,190.28l-31.1,1.382a2.162,2.162,0,0,0-1.953,2.849l10.418,31a2.162,2.162,0,0,0,3.871.476l20.686-32.38a2.162,2.162,0,0,0-1.816-3.326q-.051,0-.1,0" fill="none"/>
    </clipPath>
    <linearGradient id="linear-gradient-5" x1="-2.147" y1="2.075" x2="-2.12" y2="2.075" xlink:href="#linear-gradient"/>
    <clipPath id="clip-path-12">
      <path id="Trazado_204103" data-name="Trazado 204103" d="M145.295,24.583l-3.164,38.293a2.162,2.162,0,0,0,3.248,2.043l26.856-15.753a2.163,2.163,0,0,0,.4-3.431L148.939,23.2a2.12,2.12,0,0,0-1.478-.6,2.159,2.159,0,0,0-2.166,1.986" fill="none"/>
    </clipPath>
    <linearGradient id="linear-gradient-6" x1="-4.481" y1="5.669" x2="-4.45" y2="5.669" xlink:href="#linear-gradient"/>
    <clipPath id="clip-path-14">
      <path id="Trazado_204106" data-name="Trazado 204106" d="M83.82,250l.253,5.011a1.142,1.142,0,0,0,.977,1.076,4.433,4.433,0,0,0,2.032-.168,1.351,1.351,0,0,0,.911-1.04L88.868,250Z" fill="none"/>
    </clipPath>
    <linearGradient id="linear-gradient-7" x1="-16.605" y1="2.841" x2="-16.407" y2="2.841" gradientUnits="objectBoundingBox">
      <stop offset="0" stop-color="#fff"/>
      <stop offset="1" stop-color="#efeff4"/>
    </linearGradient>
    <clipPath id="clip-path-16">
      <path id="Trazado_204109" data-name="Trazado 204109" d="M55.505,251.824a1.34,1.34,0,0,0,.7,1.516,4.749,4.749,0,0,0,2.566.621,1.116,1.116,0,0,0,.912-.745l1.82-5.186L56.744,246.9Z" fill="none"/>
    </clipPath>
    <linearGradient id="linear-gradient-8" x1="-9.008" y1="2.878" x2="-8.845" y2="2.878" xlink:href="#linear-gradient-7"/>
    <clipPath id="clip-path-18">
      <path id="Trazado_204112" data-name="Trazado 204112" d="M139.138,117.942a4.149,4.149,0,0,0-2.032,2.044c-1.36,2.977-5.427,10.445-13.314,14.008a21.715,21.715,0,0,1,3.761,9.914c4.738-3.526,8.828-9.414,10.79-19.071a3.854,3.854,0,0,0,3.361-.093c.986-.478,2.123-1.157,2.977-1.691a3.9,3.9,0,0,0,1.731-2.324,13.447,13.447,0,0,0,.134-3.6l3.841-1.19a1.365,1.365,0,0,0,.769-1.743,74.141,74.141,0,0,0-12.018,3.746" fill="none"/>
    </clipPath>
    <linearGradient id="linear-gradient-9" x1="-2.933" y1="3.921" x2="-2.908" y2="3.921" gradientUnits="objectBoundingBox">
      <stop offset="0" stop-color="#febbba"/>
      <stop offset="1" stop-color="#ff928e"/>
    </linearGradient>
    <clipPath id="clip-path-20">
      <path id="Trazado_204115" data-name="Trazado 204115" d="M82.332,135.2a.871.871,0,0,0,.411,1c1.219.7,4.143,1.833,8.142-.127a1.814,1.814,0,0,0,1.007-1.708l-.352-8.335-7.673-2s-.817,8.624-1.535,11.176" fill="none"/>
    </clipPath>
    <linearGradient id="linear-gradient-10" x1="-4.866" y1="10.714" x2="-4.804" y2="10.714" xlink:href="#linear-gradient-9"/>
    <clipPath id="clip-path-21">
      <path id="Trazado_204116" data-name="Trazado 204116" d="M81.337,116.828c-.584,1.977,2.017,6.806,2.017,6.806a7.733,7.733,0,0,0,8.361,4.313c3.638-.634,2.961-2.675,2.785-5.822s-2.785-9.139-2.785-9.139-9.795,1.865-10.378,3.842" fill="none"/>
    </clipPath>
    <linearGradient id="linear-gradient-11" x1="-3.761" y1="7.498" x2="-3.712" y2="7.498" xlink:href="#linear-gradient-9"/>
    <clipPath id="clip-path-23">
      <path id="Trazado_204118" data-name="Trazado 204118" d="M82,119.2c-1.716,1.073.891,4.29,2.271,4.433l.441-1.678s-.766-2.945-2.112-2.945a1.124,1.124,0,0,0-.6.19" fill="none"/>
    </clipPath>
    <linearGradient id="linear-gradient-12" x1="-12.783" y1="23.819" x2="-12.622" y2="23.819" xlink:href="#linear-gradient-9"/>
    <clipPath id="clip-path-24">
      <path id="Trazado_204119" data-name="Trazado 204119" d="M144.5,117.865l-3.262.654a.326.326,0,0,0-.148.072l-1.734,1.489a.327.327,0,1,0,.425.5l1.67-1.432,2.946-.591a.473.473,0,0,1,.044.308c-.045.189-.253.394-.605.593-.966.546-3.474,3.611-3.757,3.959a.326.326,0,0,0,.048.46.32.32,0,0,0,.206.074.326.326,0,0,0,.254-.121,27.321,27.321,0,0,1,3.57-3.8,1.684,1.684,0,0,0,.921-1.012A1.248,1.248,0,0,0,144.84,118a.327.327,0,0,0-.271-.145.294.294,0,0,0-.065.007" fill="none"/>
    </clipPath>
    <linearGradient id="linear-gradient-13" x1="-23.392" y1="24.584" x2="-23.224" y2="24.584" xlink:href="#linear-gradient-9"/>
    <clipPath id="clip-path-25">
      <path id="Trazado_204120" data-name="Trazado 204120" d="M72.2,174.228a36.008,36.008,0,0,0,12.385,4.145l11.533.143-4.036-3.8a3.014,3.014,0,0,0-3.693-.346,8.758,8.758,0,0,0-2.05,1.827s-7.195-2.628-10.682-8.511a35.581,35.581,0,0,0-3.457,6.542" fill="none"/>
    </clipPath>
    <linearGradient id="linear-gradient-14" x1="-2.759" y1="6.302" x2="-2.72" y2="6.302" xlink:href="#linear-gradient-9"/>
    <clipPath id="clip-path-27">
      <path id="Trazado_204124" data-name="Trazado 204124" d="M241.094,113.163l-38.067,5.222A2.162,2.162,0,0,0,201.738,122l21.2,22.8a2.162,2.162,0,0,0,3.436-.358l16.86-28.019a2.162,2.162,0,0,0-1.836-3.277,2.337,2.337,0,0,0-.309.021" fill="none"/>
    </clipPath>
    <linearGradient id="linear-gradient-15" x1="-4.602" y1="4.721" x2="-4.579" y2="4.721" xlink:href="#linear-gradient"/>
    <clipPath id="clip-path-28">
      <path id="Trazado_204125" data-name="Trazado 204125" d="M57.5,76.616,31.589,96.563a2.161,2.161,0,0,0,.812,3.814l37.351,9.011a2.162,2.162,0,0,0,2.518-2.9L60.831,77.535a2.159,2.159,0,0,0-3.329-.919" fill="none"/>
    </clipPath>
    <linearGradient id="linear-gradient-16" x1="-0.705" y1="5.69" x2="-0.682" y2="5.69" xlink:href="#linear-gradient"/>
    <clipPath id="clip-path-30">
      <rect id="Rectángulo_37873" data-name="Rectángulo 37873" width="28.918" height="28.927" transform="translate(217.633 66.893)" fill="none"/>
    </clipPath>
    <clipPath id="clip-path-31">
      <rect id="Rectángulo_37874" data-name="Rectángulo 37874" width="7.894" height="7.894" transform="translate(224.502 73.021)" fill="none"/>
    </clipPath>
    <clipPath id="clip-path-32">
      <rect id="Rectángulo_37875" data-name="Rectángulo 37875" width="12.285" height="12.285" transform="translate(228.784 78.253)" fill="none"/>
    </clipPath>
    <clipPath id="clip-path-33">
      <rect id="Rectángulo_37876" data-name="Rectángulo 37876" width="30.805" height="30.814" transform="translate(104.419 6.942)" fill="none"/>
    </clipPath>
    <clipPath id="clip-path-34">
      <rect id="Rectángulo_37877" data-name="Rectángulo 37877" width="8.131" height="8.507" transform="translate(116.03 12.641)" fill="none"/>
    </clipPath>
    <clipPath id="clip-path-35">
      <rect id="Rectángulo_37878" data-name="Rectángulo 37878" width="15.675" height="7.348" transform="translate(112.236 22.444)" fill="none"/>
    </clipPath>
    <clipPath id="clip-path-36">
      <rect id="Rectángulo_37879" data-name="Rectángulo 37879" width="30.112" height="30.121" transform="translate(178.809 18.816)" fill="none"/>
    </clipPath>
    <clipPath id="clip-path-37">
      <rect id="Rectángulo_37880" data-name="Rectángulo 37880" width="17.145" height="14.632" transform="translate(185.831 25.999)" fill="none"/>
    </clipPath>
    <clipPath id="clip-path-38">
      <rect id="Rectángulo_37881" data-name="Rectángulo 37881" width="29.954" height="29.963" transform="translate(42.222 38.501)" fill="none"/>
    </clipPath>
    <clipPath id="clip-path-39">
      <rect id="Rectángulo_37882" data-name="Rectángulo 37882" width="13.551" height="18.055" transform="translate(50.301 44.004)" fill="none"/>
    </clipPath>
  </defs>
  <g id="Grupo_146302" data-name="Grupo 146302" clip-path="url(#clip-path)">
    <g id="Grupo_146217" data-name="Grupo 146217">
      <g id="Grupo_146216" data-name="Grupo 146216" clip-path="url(#clip-path-2)">
        <rect id="Rectángulo_37846" data-name="Rectángulo 37846" width="282.061" height="269.748" transform="translate(-14.12 0)" fill="#baeae8"/>
      </g>
    </g>
    <g id="Grupo_146219" data-name="Grupo 146219">
      <g id="Grupo_146218" data-name="Grupo 146218" clip-path="url(#clip-path)">
        <path id="Trazado_204090" data-name="Trazado 204090" d="M17.917,234.66A4.094,4.094,0,0,0,22,238.74H242.863a4.094,4.094,0,0,0,4.084-4.08l1.838-126.923a7.113,7.113,0,0,0-7.49-6.3L25.445,95.856a10.291,10.291,0,0,0-10.561,10.526Z" fill="#333435"/>
        <path id="Trazado_204091" data-name="Trazado 204091" d="M21.949,230.746a3.876,3.876,0,0,0,3.864,3.864H237.536a3.876,3.876,0,0,0,3.864-3.864l1.734-115.222c-.2-6.934-6.283-9.426-9.968-9.278L26.294,100.695a7.234,7.234,0,0,0-7.422,7.4Z" fill="#bdd0fb"/>
        <path id="Trazado_204092" data-name="Trazado 204092" d="M5.576,249.277H254.811a5.576,5.576,0,0,0,0-11.152H5.576a5.576,5.576,0,1,0,0,11.152" fill="#48494b"/>
        <path id="Trazado_204093" data-name="Trazado 204093" d="M102.264,66.341c-4.359-9.366-8.45-18.789-13.192-28.02A102.884,102.884,0,0,0,37.756,98.442c10.371,1.735,20.932,2.6,31.427,3.749a71.781,71.781,0,0,1,33.081-35.85" fill="#91b3fa"/>
      </g>
    </g>
    <g id="Grupo_146221" data-name="Grupo 146221">
      <g id="Grupo_146220" data-name="Grupo 146220" clip-path="url(#clip-path-4)">
        <rect id="Rectángulo_37848" data-name="Rectángulo 37848" width="38.354" height="73.45" transform="translate(32.403 98.442)" fill="url(#linear-gradient)"/>
      </g>
    </g>
    <g id="Grupo_146223" data-name="Grupo 146223">
      <g id="Grupo_146222" data-name="Grupo 146222" clip-path="url(#clip-path-5)">
        <rect id="Rectángulo_37849" data-name="Rectángulo 37849" width="87.373" height="38.428" transform="translate(90.994 194.63)" fill="url(#linear-gradient-2)"/>
      </g>
    </g>
    <g id="Grupo_146225" data-name="Grupo 146225">
      <g id="Grupo_146224" data-name="Grupo 146224" clip-path="url(#clip-path)">
        <path id="Trazado_204096" data-name="Trazado 204096" d="M70.757,160.99c-8.432,3.581-17.085,6.617-25.856,9.779-1.016.39-2.033.759-3.047,1.122a102.917,102.917,0,0,0,49.14,50.393c5.432-8.854,9.93-18.125,14.672-27.287A71.771,71.771,0,0,1,70.757,160.99" fill="#91b3fa"/>
      </g>
    </g>
    <g id="Grupo_146227" data-name="Grupo 146227">
      <g id="Grupo_146226" data-name="Grupo 146226" clip-path="url(#clip-path-7)">
        <rect id="Rectángulo_37851" data-name="Rectángulo 37851" width="59.92" height="39.059" transform="translate(89.072 27.282)" fill="url(#linear-gradient-3)"/>
      </g>
    </g>
    <g id="Grupo_146229" data-name="Grupo 146229">
      <g id="Grupo_146228" data-name="Grupo 146228" clip-path="url(#clip-path)">
        <path id="Trazado_204098" data-name="Trazado 204098" d="M148.74,28.139c-.013.524-.01,1.045.013,1.566a174.669,174.669,0,0,1-2.117,29.575,71.388,71.388,0,0,1,38.556,19.547c7.969-6.741,15.744-13.741,23.535-20.681A102.39,102.39,0,0,0,148.74,28.139" fill="#91b3fa"/>
      </g>
    </g>
    <g id="Grupo_146231" data-name="Grupo 146231">
      <g id="Grupo_146230" data-name="Grupo 146230" clip-path="url(#clip-path-9)">
        <rect id="Rectángulo_37853" data-name="Rectángulo 37853" width="51.577" height="60.007" transform="translate(185.192 58.146)" fill="url(#linear-gradient-4)"/>
      </g>
    </g>
    <g id="Grupo_146233" data-name="Grupo 146233">
      <g id="Grupo_146232" data-name="Grupo 146232" clip-path="url(#clip-path)">
        <path id="Trazado_204100" data-name="Trazado 204100" d="M205.648,118.152a72.209,72.209,0,0,1,.89,8.52,71.145,71.145,0,0,1-10.667,40.862,295.9,295.9,0,0,1,26.623,16.456,102.049,102.049,0,0,0,15.36-58.71,103.907,103.907,0,0,0-1.085-11.024c-10.384,1.493-20.711,2.765-31.121,3.9" fill="#91b3fa"/>
        <path id="Trazado_204101" data-name="Trazado 204101" d="M165.379,194.63c4.282,9.449,8.488,18.937,12.987,28.341a102.929,102.929,0,0,0,44.128-38.98,295.689,295.689,0,0,0-26.623-16.458,71.743,71.743,0,0,1-30.492,27.1" fill="#7d97f4"/>
      </g>
    </g>
    <g id="Grupo_146235" data-name="Grupo 146235">
      <g id="Grupo_146234" data-name="Grupo 146234" clip-path="url(#clip-path-11)">
        <rect id="Rectángulo_37855" data-name="Rectángulo 37855" width="36.357" height="37.236" transform="translate(78.076 190.277)" fill="url(#linear-gradient-5)"/>
      </g>
    </g>
    <g id="Grupo_146237" data-name="Grupo 146237">
      <g id="Grupo_146236" data-name="Grupo 146236" clip-path="url(#clip-path-12)">
        <rect id="Rectángulo_37856" data-name="Rectángulo 37856" width="31.685" height="43.207" transform="translate(141.987 22.597)" fill="url(#linear-gradient-6)"/>
      </g>
    </g>
    <g id="Grupo_146239" data-name="Grupo 146239">
      <g id="Grupo_146238" data-name="Grupo 146238" clip-path="url(#clip-path)">
        <path id="Trazado_204104" data-name="Trazado 204104" d="M99.581,260.62c-3.07.265-8.4.7-12.6.881a12.127,12.127,0,0,1-4.817-.471c0,.094,0,.184.008.266a.869.869,0,0,0,.826.821,147.832,147.832,0,0,0,16.5.017.619.619,0,0,0,.5-.93,5.138,5.138,0,0,0-.419-.584" fill="#5c5e61"/>
        <path id="Trazado_204105" data-name="Trazado 204105" d="M86.981,261.5c4.2-.185,9.53-.616,12.6-.881-3.019-3.7-12.6-6.2-12.6-6.2H84.275a11.345,11.345,0,0,0-2.11,6.61,12.138,12.138,0,0,0,4.816.471" fill="#5c5e61"/>
      </g>
    </g>
    <g id="Grupo_146241" data-name="Grupo 146241">
      <g id="Grupo_146240" data-name="Grupo 146240" clip-path="url(#clip-path-14)">
        <rect id="Rectángulo_37858" data-name="Rectángulo 37858" width="5.048" height="6.175" transform="translate(83.82 250.002)" fill="url(#linear-gradient-7)"/>
      </g>
    </g>
    <g id="Grupo_146243" data-name="Grupo 146243">
      <g id="Grupo_146242" data-name="Grupo 146242" clip-path="url(#clip-path)">
        <path id="Trazado_204107" data-name="Trazado 204107" d="M52.411,266.4a2.642,2.642,0,0,1-2.187-2.09l0,.026a2.384,2.384,0,0,0,1.167,2.55,6.062,6.062,0,0,0,3.228.653,2.983,2.983,0,0,0,2.421-1.443l.008-.013c-1,.642-2.411.717-4.632.317" fill="#5c5e61"/>
        <path id="Trazado_204108" data-name="Trazado 204108" d="M58.689,251.546H56.457c-3.4-.09-5.534,9.176-6.232,12.765a2.641,2.641,0,0,0,2.186,2.09c2.221.4,3.629.324,4.632-.317,1.836-3.124,2.747-7.7,3.185-10.368a3.872,3.872,0,0,0-1.539-4.17" fill="#5c5e61"/>
      </g>
    </g>
    <g id="Grupo_146245" data-name="Grupo 146245">
      <g id="Grupo_146244" data-name="Grupo 146244" clip-path="url(#clip-path-16)">
        <rect id="Rectángulo_37860" data-name="Rectángulo 37860" width="6.145" height="7.174" transform="translate(55.354 246.895)" fill="url(#linear-gradient-8)"/>
      </g>
    </g>
    <g id="Grupo_146247" data-name="Grupo 146247">
      <g id="Grupo_146246" data-name="Grupo 146246" clip-path="url(#clip-path)">
        <path id="Trazado_204110" data-name="Trazado 204110" d="M100.337,181.98s-11.074,69.223-10.892,69.6a9.212,9.212,0,0,1-6.393.177s1-37.005,3.348-51.193c0,0-18.9,33.075-24.9,49.555a15,15,0,0,1-5.721-2.078s20.35-59.534,25.779-67.463Z" fill="#333435"/>
        <path id="Trazado_204111" data-name="Trazado 204111" d="M86.842,200.207a.332.332,0,0,1-.173-.049.328.328,0,0,1-.1-.451L90.7,193.1a.329.329,0,0,1,.213-.146l3.046-.613a.327.327,0,0,1,.129.642l-2.908.584-4.063,6.49a.325.325,0,0,1-.278.154" fill="#5c5e61"/>
      </g>
    </g>
    <g id="Grupo_146249" data-name="Grupo 146249">
      <g id="Grupo_146248" data-name="Grupo 146248" clip-path="url(#clip-path-18)">
        <rect id="Rectángulo_37862" data-name="Rectángulo 37862" width="40.106" height="40.467" transform="matrix(0.793, -0.609, 0.609, 0.793, 109.438, 125.221)" fill="url(#linear-gradient-9)"/>
      </g>
    </g>
    <g id="Grupo_146251" data-name="Grupo 146251">
      <g id="Grupo_146250" data-name="Grupo 146250" clip-path="url(#clip-path)">
        <path id="Trazado_204113" data-name="Trazado 204113" d="M127.554,143.908a21.733,21.733,0,0,0-3.761-9.914c-4.9,2.213-11.274,2.921-19.39.109a8.651,8.651,0,0,0-2.319-.458c-4.321-.253-18.559-.715-30.34,3.177a9.154,9.154,0,0,0-5.523,5.027c-3.187,7.314-8.346,23.97,5.977,32.379a35.514,35.514,0,0,1,3.457-6.542c-2.306-3.891-2.99-9.205,1.1-16.126,2.985,8.06,4.385,19.82,4.677,25.024a11.18,11.18,0,0,1-.876,5.006l-.073.173a.592.592,0,0,0,.416.808,67.914,67.914,0,0,0,18.956,1.113,1.035,1.035,0,0,0,.922-.79c3.921-16.522,3.93-27.792,2.97-34.917,3.668.82,14.884,2.569,23.8-4.069" fill="#3740a5"/>
        <path id="Trazado_204114" data-name="Trazado 204114" d="M103.766,148.421a.327.327,0,0,1-.324-.284c-.921-6.957-2.8-9.992-2.815-10.022a.327.327,0,0,1,.553-.351c.08.126,1.968,3.166,2.911,10.287a.328.328,0,0,1-.282.367.311.311,0,0,1-.043,0" fill="#01074e"/>
      </g>
    </g>
    <g id="Grupo_146253" data-name="Grupo 146253">
      <g id="Grupo_146252" data-name="Grupo 146252" clip-path="url(#clip-path-20)">
        <rect id="Rectángulo_37864" data-name="Rectángulo 37864" width="16.228" height="13.368" transform="matrix(0.292, -0.956, 0.956, 0.292, 78.309, 136.83)" fill="url(#linear-gradient-10)"/>
      </g>
    </g>
    <g id="Grupo_146255" data-name="Grupo 146255">
      <g id="Grupo_146254" data-name="Grupo 146254" clip-path="url(#clip-path-21)">
        <rect id="Rectángulo_37865" data-name="Rectángulo 37865" width="20.666" height="20.977" transform="matrix(0.846, -0.533, 0.533, 0.846, 73.719, 117.418)" fill="url(#linear-gradient-11)"/>
      </g>
    </g>
    <g id="Grupo_146257" data-name="Grupo 146257">
      <g id="Grupo_146256" data-name="Grupo 146256" clip-path="url(#clip-path)">
        <path id="Trazado_204117" data-name="Trazado 204117" d="M84.6,121.381l.207-.091a.5.5,0,0,0,.244-.686c-.513-.991-1.513-3.262-.221-3.792,1.665-.683,8.259-2.028,9.682-4.368a4.354,4.354,0,0,0-1.665-5.977.251.251,0,0,0-.328.107l-.152.287a.247.247,0,0,1-.456-.047.246.246,0,0,0-.445-.064c-.437.7-1.618,1.835-4.776,2.418-4.487.828-7.454,2.644-7.528,5.745a.247.247,0,0,1-.382.2c-.332-.2-.862-.3-1.57.3-1.233,1.037-.729,3.725,1.973,5.936a.246.246,0,0,1-.012.4c-.489.319-1.219,1.077.672,2.089a6.369,6.369,0,0,0,3.981.867.247.247,0,0,0,.2-.3l-.6-2.726a.247.247,0,0,1,.242-.3Z" fill="#333435"/>
      </g>
    </g>
    <g id="Grupo_146259" data-name="Grupo 146259">
      <g id="Grupo_146258" data-name="Grupo 146258" clip-path="url(#clip-path-23)">
        <rect id="Rectángulo_37867" data-name="Rectángulo 37867" width="6.211" height="6.272" transform="translate(78.197 120.325) rotate(-32.216)" fill="url(#linear-gradient-12)"/>
      </g>
    </g>
    <g id="Grupo_146261" data-name="Grupo 146261">
      <g id="Grupo_146260" data-name="Grupo 146260" clip-path="url(#clip-path-24)">
        <rect id="Rectángulo_37868" data-name="Rectángulo 37868" width="5.951" height="6.089" transform="translate(139.207 117.858)" fill="url(#linear-gradient-13)"/>
      </g>
    </g>
    <g id="Grupo_146263" data-name="Grupo 146263">
      <g id="Grupo_146262" data-name="Grupo 146262" clip-path="url(#clip-path-25)">
        <rect id="Rectángulo_37869" data-name="Rectángulo 37869" width="25.824" height="16.281" transform="translate(69.662 168.316) rotate(-13.962)" fill="url(#linear-gradient-14)"/>
      </g>
    </g>
    <g id="Grupo_146265" data-name="Grupo 146265">
      <g id="Grupo_146264" data-name="Grupo 146264" clip-path="url(#clip-path)">
        <path id="Trazado_204121" data-name="Trazado 204121" d="M85.826,179.86c.022,0,.045,0,.067,0l29.276-.033a1.3,1.3,0,1,0,0-2.592l-29.276.032a1.3,1.3,0,0,0-.064,2.59" fill="#333435"/>
        <path id="Trazado_204122" data-name="Trazado 204122" d="M141.486,153.561H117.105a4.65,4.65,0,0,0-4.2,2.637l-11.272,23.647h30.3a2.824,2.824,0,0,0,2.626-1.767L143.3,156.2a1.929,1.929,0,0,0-1.811-2.635" fill="#333435"/>
        <path id="Trazado_204123" data-name="Trazado 204123" d="M124.309,165.686c-.528,1.624-.138,3.2.872,3.523s2.256-.734,2.785-2.358.138-3.2-.872-3.523-2.257.734-2.785,2.358" fill="#74767b"/>
      </g>
    </g>
    <g id="Grupo_146267" data-name="Grupo 146267">
      <g id="Grupo_146266" data-name="Grupo 146266" clip-path="url(#clip-path-27)">
        <rect id="Rectángulo_37871" data-name="Rectángulo 37871" width="43.576" height="32.707" transform="translate(200.545 113.142)" fill="url(#linear-gradient-15)"/>
      </g>
    </g>
    <g id="Grupo_146269" data-name="Grupo 146269">
      <g id="Grupo_146268" data-name="Grupo 146268" clip-path="url(#clip-path-28)">
        <rect id="Rectángulo_37872" data-name="Rectángulo 37872" width="42.763" height="33.632" transform="translate(30.15 76.166)" fill="url(#linear-gradient-16)"/>
      </g>
    </g>
    <g id="Grupo_146301" data-name="Grupo 146301">
      <g id="Grupo_146300" data-name="Grupo 146300" clip-path="url(#clip-path)">
        <path id="Trazado_204126" data-name="Trazado 204126" d="M250.407,81.356c0,9.735-9.131,17.627-18.866,17.627a17.627,17.627,0,0,1,0-35.254c9.735,0,18.866,7.892,18.866,17.627" fill="#3740a5"/>
        <g id="Grupo_146272" data-name="Grupo 146272" opacity="0.65">
          <g id="Grupo_146271" data-name="Grupo 146271">
            <g id="Grupo_146270" data-name="Grupo 146270" clip-path="url(#clip-path-30)">
              <path id="Trazado_204127" data-name="Trazado 204127" d="M246.551,81.356a14.475,14.475,0,0,1-19.7,13.487,14.449,14.449,0,0,1-8.069-7.83,14.351,14.351,0,0,1-.858-2.772,14.447,14.447,0,0,1,0-5.77,14.447,14.447,0,0,1,4.112-7.516A14.478,14.478,0,0,1,245.5,75.944a14.406,14.406,0,0,1,1.05,5.412m-1.927,0a11.877,11.877,0,0,0-.252-2.378,11.415,11.415,0,0,0-.742-2.277,11.851,11.851,0,0,0-2.812-3.9,12.6,12.6,0,0,0-4.151-2.519,12.936,12.936,0,0,0-4.8-.773,12.677,12.677,0,0,0-8.579,3.646,11.843,11.843,0,0,0-2.563,3.787,11.371,11.371,0,0,0,0,8.82,11.843,11.843,0,0,0,2.563,3.787,12.677,12.677,0,0,0,8.579,3.646,12.936,12.936,0,0,0,4.8-.773,12.6,12.6,0,0,0,4.151-2.519,11.851,11.851,0,0,0,2.812-3.9,11.415,11.415,0,0,0,.742-2.277,11.877,11.877,0,0,0,.252-2.378" fill="#fff"/>
            </g>
          </g>
        </g>
        <g id="Grupo_146275" data-name="Grupo 146275" opacity="0.8">
          <g id="Grupo_146274" data-name="Grupo 146274">
            <g id="Grupo_146273" data-name="Grupo 146273" clip-path="url(#clip-path-31)">
              <path id="Trazado_204128" data-name="Trazado 204128" d="M228.366,76.32a.7.7,0,0,0-.13.03.656.656,0,1,0,.13-.03" fill="#fff"/>
              <path id="Trazado_204129" data-name="Trazado 204129" d="M231.809,74.9l-.551-.7a.063.063,0,0,0-.068-.02l-.7.244a3.276,3.276,0,0,0-.916-.516l-.157-.727a.062.062,0,0,0-.053-.048l-.886-.107a.062.062,0,0,0-.063.034l-.325.67a3.242,3.242,0,0,0-1.012.282l-.625-.4a.062.062,0,0,0-.071,0l-.7.551a.061.061,0,0,0-.02.069l.243.7a3.221,3.221,0,0,0-.515.916l-.728.156a.063.063,0,0,0-.048.053l-.107.887a.062.062,0,0,0,.034.062l.67.325a3.229,3.229,0,0,0,.283,1.012l-.4.625a.06.06,0,0,0,0,.071l.551.7a.062.062,0,0,0,.068.02l.7-.244a3.234,3.234,0,0,0,.916.515l.157.728a.059.059,0,0,0,.052.048l.887.107a.061.061,0,0,0,.062-.034l.326-.67a3.244,3.244,0,0,0,1.012-.283l.625.4a.062.062,0,0,0,.071,0l.7-.552a.059.059,0,0,0,.02-.068L231,79a3.245,3.245,0,0,0,.515-.916l.728-.157a.062.062,0,0,0,.048-.052l.106-.887a.058.058,0,0,0-.034-.062l-.669-.325a3.256,3.256,0,0,0-.283-1.012l.4-.625a.062.062,0,0,0,0-.071m-1.379,1.253a.14.14,0,0,1-.187-.065,2.015,2.015,0,1,0-.569,2.466,2.013,2.013,0,0,0,.638-.863.14.14,0,0,1,.263,0,.141.141,0,0,1,0,.1,2.3,2.3,0,1,1-.338-2.238l.021.026a2.4,2.4,0,0,1,.2.317h0l.012.024.005.008.019.038.006.016a.14.14,0,0,1-.071.171m-1.243,1.387a.936.936,0,0,1-1.309.168.933.933,0,1,1,1.309-.168" fill="#fff"/>
            </g>
          </g>
        </g>
        <g id="Grupo_146278" data-name="Grupo 146278" opacity="0.84">
          <g id="Grupo_146277" data-name="Grupo 146277">
            <g id="Grupo_146276" data-name="Grupo 146276" clip-path="url(#clip-path-32)">
              <path id="Trazado_204130" data-name="Trazado 204130" d="M235.136,83.375a1.079,1.079,0,0,0-.211-.021,1.039,1.039,0,1,0,.211.021" fill="#fff"/>
              <path id="Trazado_204131" data-name="Trazado 204131" d="M241.064,83.006l-.47-1.344a.1.1,0,0,0-.092-.066l-1.187,0a5.156,5.156,0,0,0-1.116-1.249l.139-1.179a.1.1,0,0,0-.054-.1L237,78.455a.1.1,0,0,0-.111.019l-.837.843a5.165,5.165,0,0,0-1.672-.1l-.735-.931a.1.1,0,0,0-.109-.032l-1.344.47a.1.1,0,0,0-.066.092l.005,1.187a5.177,5.177,0,0,0-1.249,1.116l-1.179-.139a.1.1,0,0,0-.1.055l-.618,1.282a.1.1,0,0,0,.019.112l.843.836a5.137,5.137,0,0,0-.1,1.672l-.932.735a.1.1,0,0,0-.031.109l.469,1.344a.1.1,0,0,0,.093.066l1.186,0a5.182,5.182,0,0,0,1.116,1.25l-.139,1.178a.1.1,0,0,0,.055.1l1.282.618a.1.1,0,0,0,.112-.019l.836-.843a5.17,5.17,0,0,0,1.673.1l.735.931a.1.1,0,0,0,.108.032l1.345-.47a.1.1,0,0,0,.065-.092l-.005-1.187a5.181,5.181,0,0,0,1.25-1.116l1.179.139a.1.1,0,0,0,.1-.054l.618-1.283a.1.1,0,0,0-.019-.112l-.843-.836a5.166,5.166,0,0,0,.1-1.672l.931-.735a.1.1,0,0,0,.032-.109m-2.727,1.179a.222.222,0,0,1-.249-.194,3.287,3.287,0,0,0-.156-.666,3.213,3.213,0,1,0-.567,3.119.223.223,0,0,1,.314-.028.221.221,0,0,1,.08.171.217.217,0,0,1-.051.143,3.66,3.66,0,1,1,.645-3.552l.017.051a3.773,3.773,0,0,1,.143.582v0l.006.042,0,.015.009.066v.028a.222.222,0,0,1-.195.221m-2.591,1.452a1.488,1.488,0,1,1,.422-2.061,1.481,1.481,0,0,1-.422,2.061" fill="#fff"/>
            </g>
          </g>
        </g>
        <path id="Trazado_204132" data-name="Trazado 204132" d="M139.331,22.349c0,10.37-9.727,18.776-20.1,18.776a18.776,18.776,0,1,1,0-37.552c10.37,0,20.1,8.406,20.1,18.776" fill="#3740a5"/>
        <g id="Grupo_146281" data-name="Grupo 146281" opacity="0.65">
          <g id="Grupo_146280" data-name="Grupo 146280">
            <g id="Grupo_146279" data-name="Grupo 146279" clip-path="url(#clip-path-33)">
              <path id="Trazado_204133" data-name="Trazado 204133" d="M135.224,22.349a15.419,15.419,0,0,1-20.988,14.367,15.39,15.39,0,0,1-8.594-8.341,15.311,15.311,0,0,1-.914-2.952,15.445,15.445,0,0,1,0-6.148,15.4,15.4,0,0,1,4.38-8.006,15.394,15.394,0,0,1,16.919-3.016,15.4,15.4,0,0,1,9.2,14.1m-2.054,0a12.609,12.609,0,0,0-.268-2.533,12.167,12.167,0,0,0-.79-2.425,12.636,12.636,0,0,0-3-4.151,13.409,13.409,0,0,0-4.421-2.683,13.768,13.768,0,0,0-5.111-.823,13.5,13.5,0,0,0-9.138,3.883,12.629,12.629,0,0,0-2.732,4.035,12.11,12.11,0,0,0,0,9.394,12.629,12.629,0,0,0,2.732,4.035,13.5,13.5,0,0,0,9.138,3.883,13.768,13.768,0,0,0,5.111-.823,13.409,13.409,0,0,0,4.421-2.683,12.636,12.636,0,0,0,3-4.151,12.167,12.167,0,0,0,.79-2.425,12.6,12.6,0,0,0,.268-2.533" fill="#fff"/>
            </g>
          </g>
        </g>
        <g id="Grupo_146284" data-name="Grupo 146284" opacity="0.83">
          <g id="Grupo_146283" data-name="Grupo 146283">
            <g id="Grupo_146282" data-name="Grupo 146282" clip-path="url(#clip-path-34)">
              <path id="Trazado_204134" data-name="Trazado 204134" d="M124.161,16.479c0,2.245-1.82,4.669-4.065,4.669s-4.065-2.424-4.065-4.669a4.072,4.072,0,0,1,8.13,0" fill="#fff"/>
            </g>
          </g>
        </g>
        <g id="Grupo_146287" data-name="Grupo 146287" opacity="0.83">
          <g id="Grupo_146286" data-name="Grupo 146286">
            <g id="Grupo_146285" data-name="Grupo 146285" clip-path="url(#clip-path-35)">
              <path id="Trazado_204135" data-name="Trazado 204135" d="M115.051,29.792h9.924a2.4,2.4,0,0,0,2.288-1.67l.534-1.669a2.4,2.4,0,0,0-1.45-2.986,18.5,18.5,0,0,0-12.493.136,2.393,2.393,0,0,0-1.533,2.9l.412,1.516a2.4,2.4,0,0,0,2.318,1.773" fill="#fff"/>
            </g>
          </g>
        </g>
        <path id="Trazado_204136" data-name="Trazado 204136" d="M212.936,33.876c0,10.137-9.508,18.354-19.645,18.354a18.354,18.354,0,1,1,0-36.708c10.137,0,19.645,8.217,19.645,18.354" fill="#3740a5"/>
        <g id="Grupo_146290" data-name="Grupo 146290" opacity="0.65">
          <g id="Grupo_146289" data-name="Grupo 146289">
            <g id="Grupo_146288" data-name="Grupo 146288" clip-path="url(#clip-path-36)">
              <path id="Trazado_204137" data-name="Trazado 204137" d="M208.922,33.876A15.074,15.074,0,0,1,188.406,47.92a15.043,15.043,0,0,1-9.3-11.04,15.092,15.092,0,0,1,0-6.008,15.057,15.057,0,0,1,29.811,3m-2.008,0a12.333,12.333,0,0,0-.262-2.476,11.925,11.925,0,0,0-.772-2.371,12.354,12.354,0,0,0-2.928-4.057,13.118,13.118,0,0,0-4.323-2.623,13.467,13.467,0,0,0-5-.805,13.2,13.2,0,0,0-8.933,3.8,12.343,12.343,0,0,0-2.669,3.944,11.825,11.825,0,0,0,0,9.184,12.343,12.343,0,0,0,2.669,3.944,13.2,13.2,0,0,0,8.933,3.8,13.467,13.467,0,0,0,5-.805,13.118,13.118,0,0,0,4.323-2.623,12.354,12.354,0,0,0,2.928-4.057,11.925,11.925,0,0,0,.772-2.371,12.333,12.333,0,0,0,.262-2.476" fill="#fff"/>
            </g>
          </g>
        </g>
        <g id="Grupo_146293" data-name="Grupo 146293" opacity="0.86">
          <g id="Grupo_146292" data-name="Grupo 146292">
            <g id="Grupo_146291" data-name="Grupo 146291" clip-path="url(#clip-path-37)">
              <path id="Trazado_204138" data-name="Trazado 204138" d="M188.949,40.631c-.217,0-.4,0-.547-.006a.5.5,0,0,1-.122-.982h0a24.416,24.416,0,0,0,3.742-1.477c-4.953-.4-5.941-2.947-6.132-4.11-.482-2.935,2.064-6.254,5.676-7.4,3.686-1.17,7.42-.748,9.514,1.074,1.113.968,2.319,2.822,1.75,6.159-1.064,6.243-10.8,6.744-13.881,6.744m-.425-.123Zm-.1-.782h0Zm7.155-2.441-1.569.875a34.471,34.471,0,0,1-3.143,1.514c3.823-.231,10.292-1.311,11.08-5.938.4-2.348-.089-4.142-1.454-5.33-2.118-1.844-5.871-1.778-8.652-.9-3.149,1-5.467,3.93-5.062,6.4.369,2.241,2.921,3.494,7,3.409Z" fill="#fff"/>
            </g>
          </g>
        </g>
        <path id="Trazado_204139" data-name="Trazado 204139" d="M76.17,53.483c0,10.084-9.458,18.258-19.542,18.258a18.258,18.258,0,0,1,0-36.516c10.084,0,19.542,8.174,19.542,18.258" fill="#3740a5"/>
        <g id="Grupo_146296" data-name="Grupo 146296" opacity="0.65">
          <g id="Grupo_146295" data-name="Grupo 146295">
            <g id="Grupo_146294" data-name="Grupo 146294" clip-path="url(#clip-path-38)">
              <path id="Trazado_204140" data-name="Trazado 204140" d="M72.176,53.483a14.994,14.994,0,0,1-20.408,13.97,14.973,14.973,0,0,1-9.246-10.981,15.04,15.04,0,0,1,0-5.978,14.977,14.977,0,0,1,29.654,2.989m-2,0a12.277,12.277,0,0,0-.26-2.463,11.925,11.925,0,0,0-.768-2.358,12.28,12.28,0,0,0-2.914-4.036,13.046,13.046,0,0,0-4.3-2.609,13.393,13.393,0,0,0-4.97-.8,13.13,13.13,0,0,0-8.886,3.776,12.3,12.3,0,0,0-2.656,3.924,11.772,11.772,0,0,0,0,9.134,12.3,12.3,0,0,0,2.656,3.924,13.13,13.13,0,0,0,8.886,3.776,13.393,13.393,0,0,0,4.97-.8,13.012,13.012,0,0,0,4.3-2.609A12.28,12.28,0,0,0,69.151,58.3a11.925,11.925,0,0,0,.768-2.358,12.269,12.269,0,0,0,.26-2.463" fill="#fff"/>
            </g>
          </g>
        </g>
        <g id="Grupo_146299" data-name="Grupo 146299" opacity="0.84">
          <g id="Grupo_146298" data-name="Grupo 146298">
            <g id="Grupo_146297" data-name="Grupo 146297" clip-path="url(#clip-path-39)">
              <path id="Trazado_204141" data-name="Trazado 204141" d="M57.077,62.059a2.194,2.194,0,0,1-1.891-1.065C52.958,57.312,50.3,52.461,50.3,50.26a6.8,6.8,0,0,1,13.552,0c0,2.2-2.657,7.052-4.885,10.734a2.194,2.194,0,0,1-1.891,1.065m0-17.094a5.58,5.58,0,0,0-5.815,5.295c0,1.522,1.73,5.253,4.746,10.236a1.25,1.25,0,0,0,2.138,0c3.016-4.983,4.746-8.714,4.746-10.236a5.58,5.58,0,0,0-5.815-5.295" fill="#fff"/>
              <path id="Trazado_204142" data-name="Trazado 204142" d="M56.556,54.643a4.225,4.225,0,0,1-4.22-4.22.481.481,0,1,1,.961,0,3.258,3.258,0,1,0,.645-1.947.481.481,0,0,1-.771-.574,4.22,4.22,0,1,1,3.385,6.741" fill="#fff"/>
            </g>
          </g>
        </g>
      </g>
    </g>
  </g>
</svg>
