<svg id="Grupo_147147" data-name="Grupo 147147" xmlns="http://www.w3.org/2000/svg" xmlns:xlink="http://www.w3.org/1999/xlink" width="160.557" height="151.113" viewBox="0 0 160.557 151.113">
  <defs>
    <clipPath id="clip-path">
      <rect id="Rectángulo_38507" data-name="Rectángulo 38507" width="160.557" height="151.113" fill="none"/>
    </clipPath>
  </defs>
  <g id="Grupo_147146" data-name="Grupo 147146" clip-path="url(#clip-path)">
    <path id="Trazado_207381" data-name="Trazado 207381" d="M42.744,47.343A7.436,7.436,0,1,0,35.3,39.9a7.443,7.443,0,0,0,7.44,7.44m0-10.32a2.884,2.884,0,1,1-2.888,2.88,2.883,2.883,0,0,1,2.888-2.88" transform="translate(-11.47 -10.55)" fill="#01074e"/>
    <path id="Trazado_207382" data-name="Trazado 207382" d="M72.464,47.343a7.436,7.436,0,1,0-7.431-7.44,7.448,7.448,0,0,0,7.431,7.44m0-10.32a2.884,2.884,0,1,1-2.88,2.88,2.887,2.887,0,0,1,2.88-2.88" transform="translate(-21.13 -10.55)" fill="#01074e"/>
    <path id="Trazado_207383" data-name="Trazado 207383" d="M116.612,47.343h40.139a7.436,7.436,0,1,0,0-14.872H116.612a7.436,7.436,0,0,0,0,14.872m0-10.32h40.139a2.884,2.884,0,1,1,0,5.768H116.612a2.884,2.884,0,0,1,0-5.768" transform="translate(-35.473 -10.55)" fill="#01074e"/>
    <path id="Trazado_207384" data-name="Trazado 207384" d="M133.9,123.072a5.064,5.064,0,0,0-1.49-3.615l-.606-.606a23.964,23.964,0,0,0,1.7-4.1h.857a5.1,5.1,0,0,0,5.095-5.095v-4.113a5.1,5.1,0,0,0-5.095-5.095h-.847a23.976,23.976,0,0,0-1.71-4.142l.6-.6a5.1,5.1,0,0,0,0-7.212L129.5,85.585a5.067,5.067,0,0,0-3.605-1.489h-.011a5.038,5.038,0,0,0-3.585,1.487l-.613.611a24.119,24.119,0,0,0-4.2-1.736v-.813a5.1,5.1,0,0,0-5.095-5.095h-4.12a5.1,5.1,0,0,0-5.095,5.095v.87a23.912,23.912,0,0,0-4.1,1.718l-.589-.585a5.042,5.042,0,0,0-3.595-1.5h-.011a5.07,5.07,0,0,0-3.608,1.493l-2.9,2.9a5.1,5.1,0,0,0,0,7.212l.624.625a23.984,23.984,0,0,0-1.674,4.064h-.862a5.1,5.1,0,0,0-5.095,5.095v4.113a5.1,5.1,0,0,0,5.095,5.095h.872a24.043,24.043,0,0,0,1.7,4.1l-.606.606a5.1,5.1,0,0,0,0,7.2l2.907,2.907a5.041,5.041,0,0,0,3.6,1.5h.007a5.064,5.064,0,0,0,3.609-1.494l.6-.6a24.09,24.09,0,0,0,4.107,1.706v.883a5.1,5.1,0,0,0,5.095,5.1h4.12a5.1,5.1,0,0,0,5.095-5.1v-.878a23.958,23.958,0,0,0,4.125-1.713l.6.6a5.042,5.042,0,0,0,3.6,1.5h.011a5.061,5.061,0,0,0,3.608-1.494l2.9-2.9A5.039,5.039,0,0,0,133.9,123.072Zm-4.36-11.1a19.511,19.511,0,0,1-2.5,6.05,2.275,2.275,0,0,0,.319,2.818l1.838,1.838a.546.546,0,0,1,.156.389.534.534,0,0,1-.159.382l-2.9,2.91a.549.549,0,0,1-.389.158c-.018-.062-.25-.026-.381-.158l-1.846-1.846a2.271,2.271,0,0,0-2.821-.317,19.458,19.458,0,0,1-6.066,2.519,2.277,2.277,0,0,0-1.773,2.219v2.623a.551.551,0,0,1-.543.545h-4.12a.551.551,0,0,1-.543-.545v-2.623a2.275,2.275,0,0,0-1.763-2.216,19.548,19.548,0,0,1-6.056-2.52,2.275,2.275,0,0,0-2.828.319l-1.836,1.844a.546.546,0,0,1-.387.157c.018-.024-.243-.018-.382-.158l-2.918-2.918a.527.527,0,0,1-.151-.375.546.546,0,0,1,.156-.389l1.838-1.838a2.275,2.275,0,0,0,.319-2.818,19.512,19.512,0,0,1-2.5-6.05,2.275,2.275,0,0,0-2.219-1.77H86.451a.551.551,0,0,1-.543-.543v-4.113a.551.551,0,0,1,.543-.543H89.06a2.276,2.276,0,0,0,2.22-1.776,19.516,19.516,0,0,1,2.477-6.018,2.275,2.275,0,0,0-.323-2.811L91.58,92.541a.546.546,0,0,1-.157-.389.537.537,0,0,1,.159-.383l2.9-2.909a.549.549,0,0,1,.39-.158c-.011.038.244.019.385.16l1.838,1.83A2.273,2.273,0,0,0,99.925,91a19.291,19.291,0,0,1,6.033-2.529,2.274,2.274,0,0,0,1.764-2.217V83.643a.551.551,0,0,1,.543-.543h4.12a.551.551,0,0,1,.543.543v2.563a2.275,2.275,0,0,0,1.778,2.22,19.7,19.7,0,0,1,6.143,2.536,2.27,2.27,0,0,0,2.812-.317l1.854-1.847a.528.528,0,0,1,.375-.151h0a.549.549,0,0,1,.389.157l2.9,2.9a.546.546,0,0,1,.157.389.541.541,0,0,1-.16.385l-1.838,1.846a2.276,2.276,0,0,0-.314,2.817,19.515,19.515,0,0,1,2.511,6.082,2.276,2.276,0,0,0,2.22,1.773h2.593a.551.551,0,0,1,.543.543v4.113a.551.551,0,0,1-.543.543h-2.6A2.276,2.276,0,0,0,129.535,111.97Z" transform="translate(-26.433 -25.521)" fill="#01074e"/>
    <path id="Trazado_207385" data-name="Trazado 207385" d="M118.447,103.306a12.338,12.338,0,1,0,12.338,12.337A12.356,12.356,0,0,0,118.447,103.306Zm0,20.124a7.786,7.786,0,1,1,7.787-7.787,7.8,7.8,0,0,1-7.787,7.787" transform="translate(-34.473 -33.565)" fill="#01074e"/>
    <path id="Trazado_207386" data-name="Trazado 207386" d="M147.5,105.472V26.782a12.032,12.032,0,0,0-12.018-12.019H26.431A12.033,12.033,0,0,0,14.412,26.782v98.037a12.033,12.033,0,0,0,12.019,12.019h87.725A23.018,23.018,0,1,0,147.5,105.472M26.431,19.314H135.486a7.476,7.476,0,0,1,7.467,7.468v22.21H18.963V26.782a7.477,7.477,0,0,1,7.468-7.467m0,112.972a7.477,7.477,0,0,1-7.468-7.467V53.543H142.952v48.82c-.2-.1-.39-.164-.585-.246a23.014,23.014,0,0,0-31.029,29.961c.03.072.045.136.078.209H26.431Zm106.032,9.1A18.5,18.5,0,1,1,150.958,122.9a18.515,18.515,0,0,1-18.495,18.495" transform="translate(-4.683 -4.797)" fill="#01074e"/>
    <path id="Trazado_207387" data-name="Trazado 207387" d="M34.316,86.941h30.74a2.276,2.276,0,0,0,0-4.551H34.316a2.276,2.276,0,0,0,0,4.551" transform="translate(-10.41 -26.769)" fill="#01074e"/>
    <path id="Trazado_207388" data-name="Trazado 207388" d="M69.555,98.667H62.383a2.276,2.276,0,1,0,0,4.551h7.172a2.276,2.276,0,0,0,0-4.551" transform="translate(-19.529 -32.057)" fill="#01074e"/>
    <path id="Trazado_207389" data-name="Trazado 207389" d="M34.316,103.218h7.96a2.276,2.276,0,1,0,0-4.551h-7.96a2.276,2.276,0,1,0,0,4.551" transform="translate(-10.41 -32.057)" fill="#01074e"/>
    <path id="Trazado_207390" data-name="Trazado 207390" d="M34.316,119.5H55.81a2.276,2.276,0,0,0,0-4.551H34.316a2.276,2.276,0,0,0,0,4.551" transform="translate(-10.41 -37.346)" fill="#01074e"/>
    <path id="Trazado_207391" data-name="Trazado 207391" d="M34.316,135.775H58.559a2.276,2.276,0,1,0,0-4.551H34.316a2.276,2.276,0,1,0,0,4.551" transform="translate(-10.41 -42.635)" fill="#01074e"/>
    <path id="Trazado_207392" data-name="Trazado 207392" d="M70.162,147.513h-5.91a2.276,2.276,0,1,0,0,4.551h5.91a2.276,2.276,0,1,0,0-4.551" transform="translate(-20.136 -47.928)" fill="#01074e"/>
    <path id="Trazado_207393" data-name="Trazado 207393" d="M43.536,147.513H34.315a2.276,2.276,0,1,0,0,4.551h9.221a2.276,2.276,0,0,0,0-4.551" transform="translate(-10.41 -47.928)" fill="#01074e"/>
    <path id="Trazado_207394" data-name="Trazado 207394" d="M78.428,163.79H58.553a2.276,2.276,0,0,0,0,4.552H78.428a2.276,2.276,0,0,0,0-4.552" transform="translate(-18.285 -53.216)" fill="#01074e"/>
    <path id="Trazado_207395" data-name="Trazado 207395" d="M39.69,163.79H34.316a2.276,2.276,0,0,0,0,4.552H39.69a2.276,2.276,0,0,0,0-4.552" transform="translate(-10.41 -53.216)" fill="#01074e"/>
    <path id="Trazado_207396" data-name="Trazado 207396" d="M180.5,179.406a2.267,2.267,0,0,1-1.586-.643l-5.654-5.491a2.276,2.276,0,0,1,3.172-3.265l4.024,3.907,10.766-11.051a2.276,2.276,0,0,1,3.261,3.176l-12.352,12.679a2.27,2.27,0,0,1-1.63.688" transform="translate(-56.07 -52.692)" fill="#01074e"/>
  </g>
</svg>
