<svg xmlns="http://www.w3.org/2000/svg" xmlns:xlink="http://www.w3.org/1999/xlink" width="279.989" height="135.826" viewBox="0 0 279.989 135.826">
  <defs>
    <clipPath id="clip-path">
      <rect id="Rect치ngulo_38346" data-name="Rect치ngulo 38346" width="279.989" height="135.826" fill="none"/>
    </clipPath>
  </defs>
  <g id="Grupo_147333" data-name="Grupo 147333" transform="translate(8221 8175.326)">
    <g id="Grupo_146989" data-name="Grupo 146989" transform="translate(-8221 -8175.326)">
      <g id="Grupo_146988" data-name="Grupo 146988" clip-path="url(#clip-path)">
        <path id="Trazado_205993" data-name="Trazado 205993" d="M53.276,156.215q0,15.485-6.955,23.883t-19.6,8.4q-12.755,0-19.736-8.451T0,156.215V142.253q0-15.484,6.955-23.883t19.657-8.4q12.7,0,19.684,8.451t6.981,23.882ZM35.588,140q0-8.24-2.152-12.309a7.2,7.2,0,0,0-6.824-4.068,7.022,7.022,0,0,0-6.64,3.779q-2.074,3.779-2.231,11.443v19.526q0,8.555,2.152,12.518a7.219,7.219,0,0,0,6.824,3.963,7.125,7.125,0,0,0,6.666-3.858q2.152-3.858,2.2-12.1Z" transform="translate(0 -52.67)" fill="#01074e"/>
        <path id="Trazado_205994" data-name="Trazado 205994" d="M341.162,152.5a1.026,1.026,0,0,0-.389-.854,4.81,4.81,0,0,0-1.363-.633,13.088,13.088,0,0,1-1.593-.634,3.018,3.018,0,0,1-2.014-2.718,2.438,2.438,0,0,1,.5-1.519,3.246,3.246,0,0,1,1.419-1.024,5.526,5.526,0,0,1,2.064-.367,4.829,4.829,0,0,1,2,.4,3.164,3.164,0,0,1,1.377,1.134,2.968,2.968,0,0,1,.491,1.684h-2.491a1.249,1.249,0,0,0-.388-.982,1.51,1.51,0,0,0-1.049-.349,1.705,1.705,0,0,0-1.056.3.87.87,0,0,0,.039,1.474,5.408,5.408,0,0,0,1.5.669,9.216,9.216,0,0,1,1.764.744,2.965,2.965,0,0,1,1.68,2.668,2.53,2.53,0,0,1-1.024,2.134,4.557,4.557,0,0,1-2.811.776,5.569,5.569,0,0,1-2.281-.452,3.444,3.444,0,0,1-1.538-1.239,3.224,3.224,0,0,1-.515-1.811h2.5a1.59,1.59,0,0,0,.431,1.228,2.033,2.033,0,0,0,1.4.395,1.606,1.606,0,0,0,.979-.267.879.879,0,0,0,.36-.75" transform="translate(-160.679 -69.326)" fill="#01074e"/>
        <path id="Trazado_205995" data-name="Trazado 205995" d="M356.392,155.993a1.068,1.068,0,0,0,.783-.274,1,1,0,0,0,.27-.765h2.249a2.662,2.662,0,0,1-.907,2.077,3.376,3.376,0,0,1-2.338.812,3.416,3.416,0,0,1-2.647-1.054,4.15,4.15,0,0,1-.968-2.917v-.1a4.688,4.688,0,0,1,.431-2.06,3.138,3.138,0,0,1,1.242-1.374,3.7,3.7,0,0,1,1.921-.48,3.334,3.334,0,0,1,2.384.832,2.956,2.956,0,0,1,.882,2.256h-2.249a1.317,1.317,0,0,0-.292-.918,1.006,1.006,0,0,0-.783-.32q-.932,0-1.089,1.189a8.359,8.359,0,0,0-.05,1.039,3.3,3.3,0,0,0,.278,1.609.961.961,0,0,0,.882.448" transform="translate(-168.985 -71.773)" fill="#01074e"/>
        <path id="Trazado_205996" data-name="Trazado 205996" d="M372.62,152.171l-.79-.057a1.419,1.419,0,0,0-1.452.711V157.7h-2.4V150h2.248l.079.989a1.856,1.856,0,0,1,1.686-1.131,2.324,2.324,0,0,1,.669.085Z" transform="translate(-176.239 -71.773)" fill="#01074e"/>
        <path id="Trazado_205997" data-name="Trazado 205997" d="M383.094,157a2.474,2.474,0,0,1-2.057.975,2.425,2.425,0,0,1-1.918-.737,3.094,3.094,0,0,1-.651-2.117v-4.989h2.4v5a.862.862,0,0,0,.961.989,1.253,1.253,0,0,0,1.174-.59v-5.4h2.413v7.7h-2.249Z" transform="translate(-181.263 -71.903)" fill="#01074e"/>
        <path id="Trazado_205998" data-name="Trazado 205998" d="M396.6,150l.078.9a2.647,2.647,0,0,1,2.2-1.046,1.949,1.949,0,0,1,1.971,1.159,2.564,2.564,0,0,1,2.263-1.159q2.341,0,2.4,2.832V157.7h-2.4v-4.86a1.468,1.468,0,0,0-.2-.861.848.848,0,0,0-.726-.27,1.137,1.137,0,0,0-1.06.633l.007.1V157.7h-2.406v-4.846a1.544,1.544,0,0,0-.192-.875.846.846,0,0,0-.733-.27,1.151,1.151,0,0,0-1.053.633V157.7h-2.4V150Z" transform="translate(-188.87 -71.773)" fill="#01074e"/>
        <rect id="Rect치ngulo_38345" data-name="Rect치ngulo 38345" width="26.048" height="12.63" transform="translate(71.495 86.925)" fill="#01074e"/>
        <path id="Trazado_205999" data-name="Trazado 205999" d="M183.012,180.5V155.059l12.815,12.722Z" transform="translate(-87.651 -74.264)" fill="#01074e"/>
        <path id="Trazado_206000" data-name="Trazado 206000" d="M334.674,66.842A48.328,48.328,0,1,0,383,115.17a48.327,48.327,0,0,0-48.328-48.327m0,80.025a31.7,31.7,0,1,1,31.7-31.7,31.7,31.7,0,0,1-31.7,31.7" transform="translate(-137.142 -32.013)" fill="#01074e"/>
        <path id="Trazado_206001" data-name="Trazado 206001" d="M443.55,236.832H379.289l6.656-16.871H443.55l18.094,8.435Z" transform="translate(-181.656 -105.348)" fill="#01074e"/>
        <path id="Trazado_206002" data-name="Trazado 206002" d="M270.18,219.99H241.349v16.856h48.6v-.477A48.517,48.517,0,0,1,270.18,219.99" transform="translate(-115.591 -105.361)" fill="#01074e"/>
        <path id="Trazado_206003" data-name="Trazado 206003" d="M413.061,0a29.229,29.229,0,0,0-29.229,29.229c0,.287.014.57.022.855.468-.014.938-.022,1.41-.022a48.582,48.582,0,0,1,8.7.783c-.044-.533-.072-1.071-.072-1.615a19.17,19.17,0,1,1,27.626,17.206,48.431,48.431,0,0,1,5.877,8.265A29.227,29.227,0,0,0,413.061,0" transform="translate(-183.832)" fill="#01074e"/>
      </g>
    </g>
  </g>
</svg>
