<svg id="Grupo_147153" data-name="Grupo 147153" xmlns="http://www.w3.org/2000/svg" xmlns:xlink="http://www.w3.org/1999/xlink" width="160.557" height="151.113" viewBox="0 0 160.557 151.113">
  <defs>
    <clipPath id="clip-path">
      <rect id="Rectángulo_38514" data-name="Rectángulo 38514" width="160.557" height="151.113" fill="none"/>
    </clipPath>
  </defs>
  <g id="Grupo_147152" data-name="Grupo 147152" clip-path="url(#clip-path)">
    <path id="Trazado_207417" data-name="Trazado 207417" d="M161.357,68.606a1.655,1.655,0,0,0-1.489-1.6.659.659,0,0,0-.416.11l-5.559,3.611a1.446,1.446,0,0,0,0,2.451l5.559,3.611a.659.659,0,0,0,.416.11,1.655,1.655,0,0,0,1.489-1.6,1,1,0,0,0-.394-.854l-3.853-2.494,3.853-2.5a1,1,0,0,0,.394-.854" transform="translate(-49.78 -21.771)" fill="#01074e"/>
    <path id="Trazado_207418" data-name="Trazado 207418" d="M177.39,58.288a.963.963,0,0,0-.919.547l-7.683,15.78a.983.983,0,0,0-.11.417,1.211,1.211,0,0,0,1.227,1.159,1.1,1.1,0,0,0,.985-.546l7.7-15.781a.95.95,0,0,0,.088-.417,1.255,1.255,0,0,0-1.291-1.159" transform="translate(-54.804 -18.938)" fill="#01074e"/>
    <path id="Trazado_207419" data-name="Trazado 207419" d="M194.364,70.729l-5.559-3.611a.663.663,0,0,0-.417-.11,1.655,1.655,0,0,0-1.488,1.6,1,1,0,0,0,.394.854l3.852,2.5-3.852,2.5a1,1,0,0,0-.394.853,1.655,1.655,0,0,0,1.488,1.6.663.663,0,0,0,.417-.11l5.559-3.61a1.447,1.447,0,0,0,0-2.452" transform="translate(-60.725 -21.771)" fill="#01074e"/>
    <path id="Trazado_207420" data-name="Trazado 207420" d="M147.89,37.217h-38.16a13.72,13.72,0,0,0-12.8-8.811H71.339a13.713,13.713,0,0,0-13.7,13.7V57.655A5.779,5.779,0,0,0,55.781,63.1l1.007,5.536A4.823,4.823,0,0,0,58.942,72a5.209,5.209,0,0,0,2.741.726v.984c0,4.992,2.912,10.494,7.99,15.1a32.723,32.723,0,0,0,2.964,2.386v2.969A1.877,1.877,0,0,1,71.1,96c-.042.007-.082.017-.123.027s-3.073.8-7.051,1.929h-13a5.283,5.283,0,0,0-5.27,5.659l.035.5c-5.813,2.915-9.47,8.141-9.819,14.081,0,.025,0,.05,0,.075l-.4,24.4a6.639,6.639,0,0,0,6.641,6.722H126.16a6.641,6.641,0,0,0,6.64-6.729l-.4-24.388c0-.025,0-.05,0-.075-.358-6.112-4.219-11.467-10.327-14.328-.112-.052-.23-.106-.35-.16l.007-.094a5.283,5.283,0,0,0-5.27-5.659H104.345c-3.976-1.127-7.02-1.921-7.051-1.928s-.081-.02-.122-.028a1.877,1.877,0,0,1-1.535-1.846V91.191A32.878,32.878,0,0,0,98.6,88.8a25.888,25.888,0,0,0,6.866-9.5h11.515L114.97,87.42a3.2,3.2,0,0,0,1.369,3.486,3.2,3.2,0,0,0,3.743-.141L135,79.3H147.89a8.477,8.477,0,0,0,8.468-8.468V45.686a8.478,8.478,0,0,0-8.468-8.468m-41.3,23.5a7.637,7.637,0,0,1,1.737-.363A2.285,2.285,0,0,1,109,62.465l-1,5.509c-.146.769-.442.952-.538,1.012a1.739,1.739,0,0,1-.874.2ZM61.186,42.1A10.164,10.164,0,0,1,71.339,31.95h25.6A10.164,10.164,0,0,1,107.086,42.1V56.952a10.324,10.324,0,0,0-3.035,1.021v-10.8a7.051,7.051,0,0,0-7.043-7.043h-4.79A7.238,7.238,0,0,0,87.65,41.76l-.469.384a4.811,4.811,0,0,1-6.089,0l-.47-.385a7.237,7.237,0,0,0-4.568-1.629H71.265a7.05,7.05,0,0,0-7.043,7.043v10.8a10.3,10.3,0,0,0-3.035-1.02Zm-.379,26.884c-.1-.06-.392-.243-.535-1l-1-5.523a2.29,2.29,0,0,1,.671-2.112,7.636,7.636,0,0,1,1.739.362l0,8.466a1.747,1.747,0,0,1-.874-.2m-15.68,75.58a4.824,4.824,0,0,0,.174,1.284H42.114a3.1,3.1,0,0,1-3.1-3.127l.4-24.349a13.009,13.009,0,0,1,6.555-10.357l2.164,30.358a5.25,5.25,0,0,0,.367,1.586,4.836,4.836,0,0,0-3.379,4.606m74.118-6.191,2.2-30.848c4.448,2.386,7.129,6.292,7.409,10.847l.4,24.343a3.1,3.1,0,0,1-3.1,3.134h-3.186a4.829,4.829,0,0,0-4.025-6.07,5.217,5.217,0,0,0,.3-1.4m.357,6.191a1.285,1.285,0,0,1-1.283,1.284H49.954a1.284,1.284,0,0,1,0-2.567h68.365a1.285,1.285,0,0,1,1.283,1.283m-1.877-42.507a1.719,1.719,0,0,1,.462,1.309l-2.478,34.755a1.744,1.744,0,0,1-1.734,1.615H53.409a1.746,1.746,0,0,1-1.734-1.616L49.2,103.368a1.737,1.737,0,0,1,1.734-1.863h65.52a1.723,1.723,0,0,1,1.273.554m-24.076-4.1H74.624a5.414,5.414,0,0,0,1.557-3.8v-.793a17.96,17.96,0,0,0,7.955,2.258,17.966,17.966,0,0,0,7.956-2.258v.793a5.414,5.414,0,0,0,1.557,3.8M96.22,86.177c-3.957,3.585-8.7,5.9-12.084,5.9s-8.125-2.317-12.083-5.9c-4.338-3.929-6.826-8.474-6.826-12.468l0-11.165h.069a2.477,2.477,0,0,0,2.474-2.475V47.174a3.5,3.5,0,0,1,3.5-3.5h4.79a3.678,3.678,0,0,1,2.323.829l.471.385a8.357,8.357,0,0,0,10.576,0l.47-.384a3.682,3.682,0,0,1,2.324-.829h4.788a3.5,3.5,0,0,1,3.5,3.5V60.069a2.477,2.477,0,0,0,2.542,2.474l0,11.166c0,3.993-2.488,8.539-6.826,12.468m56.594-15.343a4.929,4.929,0,0,1-4.923,4.923H134.4a1.772,1.772,0,0,0-1.079.367l-14.7,11.292,2.344-9.461a1.772,1.772,0,0,0-1.719-2.2H106.433a13.645,13.645,0,0,0,.158-2.048v-.984a5.206,5.206,0,0,0,2.74-.726,4.828,4.828,0,0,0,2.158-3.378l1-5.523a5.778,5.778,0,0,0-1.861-5.444V42.1c0-.451-.022-.9-.065-1.34H147.89a4.929,4.929,0,0,1,4.923,4.923Z" transform="translate(-11.525 -9.229)" fill="#01074e"/>
    <path id="Trazado_207421" data-name="Trazado 207421" d="M104.35,170.535a6.663,6.663,0,1,0-6.663-6.663,6.67,6.67,0,0,0,6.663,6.663m0-9.781a3.118,3.118,0,1,1-3.118,3.118,3.122,3.122,0,0,1,3.118-3.118" transform="translate(-31.739 -51.078)" fill="#01074e"/>
  </g>
</svg>
