<svg xmlns="http://www.w3.org/2000/svg" xmlns:xlink="http://www.w3.org/1999/xlink" width="138.557" height="129.113" viewBox="0 0 138.557 129.113">
  <defs>
    <clipPath id="clip-path">
      <rect id="Rect치ngulo_38718" data-name="Rect치ngulo 38718" width="138.557" height="129.113" transform="translate(3765 -11102)" fill="#c4fbf8"/>
    </clipPath>
    <clipPath id="clip-path-2">
      <rect id="Rect치ngulo_38634" data-name="Rect치ngulo 38634" width="104.374" height="101.755" transform="translate(0 0)" fill="none"/>
    </clipPath>
  </defs>
  <g id="Enmascarar_grupo_64" data-name="Enmascarar grupo 64" transform="translate(-3765 11102)" clip-path="url(#clip-path)">
    <g id="Grupo_147308" data-name="Grupo 147308" transform="translate(3782 -11088)">
      <g id="Grupo_147212" data-name="Grupo 147212" clip-path="url(#clip-path-2)">
        <path id="Trazado_207798" data-name="Trazado 207798" d="M60.841,101.755a1.731,1.731,0,0,1-1.731-1.732V88.9a1.732,1.732,0,1,1,3.463,0v11.123a1.732,1.732,0,0,1-1.732,1.732" fill="#01074e"/>
        <path id="Trazado_207799" data-name="Trazado 207799" d="M88.242,101.755a1.731,1.731,0,0,1-1.731-1.732V88.9a1.731,1.731,0,1,1,3.463,0v11.123a1.731,1.731,0,0,1-1.732,1.732" fill="#01074e"/>
        <path id="Trazado_207800" data-name="Trazado 207800" d="M74.869,68.07c-3.417,0-6.4-2.142-8.554-6.209a19.7,19.7,0,0,1-2.175-9.2V49.7a1.727,1.727,0,0,1,.251-.9c1.022-1.682,5.6-4.818,10.72-4.818,5.592,0,11.06,3.423,11.06,5.977v2.7A19.718,19.718,0,0,1,84,61.86c-2.2,4.163-5.269,6.328-8.89,6.205-.08,0-.16,0-.238,0M67.6,50.34v2.323a16.247,16.247,0,0,0,1.772,7.578c1.567,2.959,3.492,4.365,5.732,4.364h.143c2.27,0,4.152-1.467,5.687-4.365a16.259,16.259,0,0,0,1.771-7.578V50.282a11.339,11.339,0,0,0-7.6-2.832A12.1,12.1,0,0,0,67.6,50.34" fill="#01074e"/>
        <path id="Trazado_207801" data-name="Trazado 207801" d="M98.206,101.755H50.878a1.731,1.731,0,0,1-1.731-1.732V85.645a14.576,14.576,0,0,1,14.56-14.56h21.67a14.576,14.576,0,0,1,14.56,14.56v14.378a1.731,1.731,0,0,1-1.731,1.732m-45.6-3.463H96.474V85.645a11.109,11.109,0,0,0-11.1-11.1H63.707a11.109,11.109,0,0,0-11.1,11.1Z" fill="#01074e"/>
        <path id="Trazado_207802" data-name="Trazado 207802" d="M50.878,101.755A50.877,50.877,0,1,1,50.878,0a1.732,1.732,0,1,1,0,3.463,47.414,47.414,0,1,0,0,94.829,1.731,1.731,0,1,1,0,3.463" fill="#01074e"/>
        <path id="Trazado_207803" data-name="Trazado 207803" d="M96.794,70.169a1.732,1.732,0,0,1-1.618-2.35q.477-1.247.885-2.522a1.731,1.731,0,0,1,3.3,1.053q-.437,1.37-.947,2.706a1.732,1.732,0,0,1-1.618,1.113" fill="#01074e"/>
        <path id="Trazado_207804" data-name="Trazado 207804" d="M99.811,57.245a1.519,1.519,0,0,1-.165-.008,1.729,1.729,0,0,1-1.561-1.886c.138-1.474.208-2.98.208-4.473l0-.6a1.732,1.732,0,0,1,3.463-.046l.005.65c0,1.6-.076,3.215-.225,4.8a1.731,1.731,0,0,1-1.721,1.569m-1.04-15.7A1.731,1.731,0,0,1,97.085,40.2a47.3,47.3,0,0,0-1.4-4.882,1.732,1.732,0,1,1,3.271-1.138,50.208,50.208,0,0,1,1.508,5.244,1.731,1.731,0,0,1-1.688,2.12M92.816,26.969a1.728,1.728,0,0,1-1.477-.826,48.077,48.077,0,0,0-2.885-4.186A1.732,1.732,0,1,1,91.2,19.844a50.871,50.871,0,0,1,3.092,4.489,1.731,1.731,0,0,1-1.474,2.636M82.554,15.032a1.729,1.729,0,0,1-1.115-.407,48.3,48.3,0,0,0-4.053-3.067,1.731,1.731,0,1,1,1.94-2.868,51.247,51.247,0,0,1,4.345,3.287,1.731,1.731,0,0,1-1.117,3.055M69.065,6.938a1.722,1.722,0,0,1-.641-.124,47.311,47.311,0,0,0-4.812-1.623,1.731,1.731,0,0,1,.928-3.336A50.811,50.811,0,0,1,69.706,3.6a1.732,1.732,0,0,1-.641,3.341" fill="#01074e"/>
        <path id="Trazado_207805" data-name="Trazado 207805" d="M53.65,3.54c-.982-.051-1.875-.076-2.772-.076a1.732,1.732,0,0,1,0-3.464q1.443,0,2.867.08a1.731,1.731,0,0,1-.095,3.46" fill="#01074e"/>
        <path id="Trazado_207806" data-name="Trazado 207806" d="M50.878,17.74a1.731,1.731,0,0,1-1.731-1.732V10.264a1.732,1.732,0,1,1,3.463,0v5.744a1.732,1.732,0,0,1-1.732,1.732" fill="#01074e"/>
        <path id="Trazado_207807" data-name="Trazado 207807" d="M75.534,27.953A1.731,1.731,0,0,1,74.31,25l4.062-4.062a1.731,1.731,0,1,1,2.449,2.448l-4.063,4.063a1.724,1.724,0,0,1-1.224.507" fill="#01074e"/>
        <path id="Trazado_207808" data-name="Trazado 207808" d="M22.16,81.328a1.732,1.732,0,0,1-1.224-2.956L25,74.31a1.731,1.731,0,0,1,2.448,2.448l-4.061,4.063a1.724,1.724,0,0,1-1.224.507" fill="#01074e"/>
        <path id="Trazado_207809" data-name="Trazado 207809" d="M16.009,52.61H10.264a1.732,1.732,0,1,1,0-3.463h5.745a1.732,1.732,0,1,1,0,3.463" fill="#01074e"/>
        <path id="Trazado_207810" data-name="Trazado 207810" d="M26.221,27.953A1.724,1.724,0,0,1,25,27.446l-4.061-4.063a1.731,1.731,0,0,1,2.448-2.448L27.445,25a1.731,1.731,0,0,1-1.224,2.956" fill="#01074e"/>
        <path id="Trazado_207811" data-name="Trazado 207811" d="M50.878,93.223A42.344,42.344,0,0,1,20.936,20.935a42.344,42.344,0,0,1,59.885,0,42.588,42.588,0,0,1,8.706,47.272,1.731,1.731,0,1,1-3.16-1.415,39.107,39.107,0,0,0-7.995-43.408A38.882,38.882,0,1,0,50.878,89.76a1.731,1.731,0,1,1,0,3.463" fill="#01074e"/>
        <path id="Trazado_207812" data-name="Trazado 207812" d="M50.878,57.547A6.666,6.666,0,1,1,55.6,55.6a6.643,6.643,0,0,1-4.719,1.951m0-9.88a3.211,3.211,0,1,0,2.27.941,3.189,3.189,0,0,0-2.27-.941" fill="#01074e"/>
        <path id="Trazado_207813" data-name="Trazado 207813" d="M48.727,48.165a1.733,1.733,0,0,1-1.6-1.076l-7.7-18.808a1.732,1.732,0,0,1,3.206-1.313l7.7,18.809a1.734,1.734,0,0,1-1.6,2.388" fill="#01074e"/>
        <path id="Trazado_207814" data-name="Trazado 207814" d="M50.878,71.249a1.731,1.731,0,0,1-1.731-1.732V56.029a1.732,1.732,0,1,1,3.463,0V69.517a1.732,1.732,0,0,1-1.732,1.732" fill="#01074e"/>
        <path id="Trazado_207815" data-name="Trazado 207815" d="M102.643,101.755H16.009a1.731,1.731,0,0,1,0-3.463h86.634a1.731,1.731,0,1,1,0,3.463" fill="#01074e"/>
      </g>
    </g>
  </g>
</svg>
