<svg id="Grupo_147149" data-name="Grupo 147149" xmlns="http://www.w3.org/2000/svg" xmlns:xlink="http://www.w3.org/1999/xlink" width="160.557" height="151.113" viewBox="0 0 160.557 151.113">
  <defs>
    <clipPath id="clip-path">
      <rect id="Rectángulo_38508" data-name="Rectángulo 38508" width="160.557" height="151.113" fill="none"/>
    </clipPath>
  </defs>
  <g id="Grupo_147148" data-name="Grupo 147148" clip-path="url(#clip-path)">
    <path id="Trazado_207397" data-name="Trazado 207397" d="M96.569,26.476H88.655a1.979,1.979,0,1,0,0,3.957h7.914a1.979,1.979,0,1,0,0-3.957" transform="translate(-28.161 -8.602)" fill="#01074e"/>
    <path id="Trazado_207398" data-name="Trazado 207398" d="M112.1,26.476a1.979,1.979,0,1,0,1.979,1.979,1.978,1.978,0,0,0-1.979-1.979" transform="translate(-35.779 -8.602)" fill="#01074e"/>
    <path id="Trazado_207399" data-name="Trazado 207399" d="M53.485,78.352a1.978,1.978,0,0,0,1.978-1.979V72.417a1.979,1.979,0,0,0-3.957,0v3.957a1.979,1.979,0,0,0,1.979,1.979" transform="translate(-16.735 -22.886)" fill="#01074e"/>
    <path id="Trazado_207400" data-name="Trazado 207400" d="M141.916,70.153c-.831,0-.494-.534-1.879-3.363a.713.713,0,0,1,.178-.792,4.729,4.729,0,0,0,0-6.648l-4.551-4.531a4.709,4.709,0,0,0-6.648,0c-.594.594-.732,0-3.72-1.048a.673.673,0,0,1-.435-.653,4.688,4.688,0,0,0-1.979-3.818V36.517a21.764,21.764,0,0,0-21.764-21.764H61.547A21.764,21.764,0,0,0,39.783,36.517v83.1a21.764,21.764,0,0,0,21.764,21.764h39.571a21.764,21.764,0,0,0,21.764-21.764v-5.936a1.978,1.978,0,1,0-3.957,0v5.936a17.808,17.808,0,0,1-17.807,17.807H61.547A17.807,17.807,0,0,1,43.74,119.617v-83.1A17.807,17.807,0,0,1,61.547,18.71h39.571a17.807,17.807,0,0,1,17.807,17.807V48.388h-3.957V36.517a13.85,13.85,0,0,0-13.85-13.85A5.936,5.936,0,0,0,95.183,28.6,1.978,1.978,0,0,1,93.2,30.581H69.462A1.978,1.978,0,0,1,67.483,28.6a5.936,5.936,0,0,0-5.935-5.936A13.85,13.85,0,0,0,47.7,36.517V46.41a1.979,1.979,0,0,0,3.957,0V36.517a9.893,9.893,0,0,1,9.893-9.893A1.978,1.978,0,0,1,63.526,28.6a5.936,5.936,0,0,0,5.935,5.935H93.2A5.936,5.936,0,0,0,99.14,28.6a1.978,1.978,0,0,1,1.979-1.979,9.892,9.892,0,0,1,9.892,9.893V49.279a4.69,4.69,0,0,0-1.978,3.819c0,.831-.554.494-3.364,1.879a.732.732,0,0,1-.791-.159,4.689,4.689,0,0,0-6.631-.016l-.016.016L93.679,59.35a4.728,4.728,0,0,0,0,6.648c.593.594,0,.752-1.029,3.72a.713.713,0,0,1-.673.435,4.729,4.729,0,0,0-4.709,4.709v6.411a4.729,4.729,0,0,0,4.709,4.709c.831,0,.495.535,1.88,3.364a.713.713,0,0,1-.178.791,4.728,4.728,0,0,0,0,6.648l4.551,4.531a4.709,4.709,0,0,0,6.648,0c.593-.593.712,0,3.72,1.048a.673.673,0,0,1,.435.653,4.69,4.69,0,0,0,1.978,3.819v12.782a9.892,9.892,0,0,1-9.892,9.892H61.547a9.892,9.892,0,0,1-9.893-9.892V66.2a1.979,1.979,0,0,0-3.957,0v53.422a13.85,13.85,0,0,0,13.85,13.85h39.571a13.85,13.85,0,0,0,13.85-13.85V107.745h5.184a4.729,4.729,0,0,0,4.709-4.709c0-.831.554-.495,3.363-1.88a.734.734,0,0,1,.792.159,4.689,4.689,0,0,0,6.631.016l.016-.016,4.551-4.531a4.729,4.729,0,0,0,0-6.648c-.593-.593,0-.752,1.029-3.72a.712.712,0,0,1,.672-.435,4.729,4.729,0,0,0,4.709-4.709V74.861A4.729,4.729,0,0,0,141.916,70.153Zm.752,11.12a.752.752,0,0,1-.752.752A4.649,4.649,0,0,0,137.5,85.13a18.068,18.068,0,0,1-1.029,2.473,4.65,4.65,0,0,0,.93,5.322.732.732,0,0,1,.014,1.036l-.014.014-4.63,4.55a.732.732,0,0,1-1.035.014l-.013-.014a4.69,4.69,0,0,0-5.322-.93,18.077,18.077,0,0,1-2.474,1.029,4.65,4.65,0,0,0-3.027,4.412.751.751,0,0,1-.751.751h-6.411a.752.752,0,0,1-.752-.751,4.65,4.65,0,0,0-3.106-4.412c-2.592-.89-2.849-1.484-4.472-1.484a4.67,4.67,0,0,0-3.323,1.385.732.732,0,0,1-1.036.014l-.013-.014-4.55-4.63a.732.732,0,0,1-.014-1.035l.014-.014a4.63,4.63,0,0,0,.93-5.3,19.463,19.463,0,0,1-1.029-2.493,4.649,4.649,0,0,0-4.412-3.027.752.752,0,0,1-.751-.752V74.861a.751.751,0,0,1,.751-.751A4.65,4.65,0,0,0,96.39,71a18.106,18.106,0,0,1,1.029-2.473,4.651,4.651,0,0,0-.93-5.322.732.732,0,0,1-.014-1.035l.014-.014,4.55-4.551a.732.732,0,0,1,1.036-.014l.014.014a4.688,4.688,0,0,0,5.322.93,18.112,18.112,0,0,1,2.474-1.029A4.649,4.649,0,0,0,112.99,53.1a.752.752,0,0,1,.752-.752h6.411a.752.752,0,0,1,.751.752,4.649,4.649,0,0,0,3.107,4.412,18.1,18.1,0,0,1,2.473,1.029,4.69,4.69,0,0,0,5.322-.93.732.732,0,0,1,1.035-.014l.014.014,4.551,4.551a.732.732,0,0,1,.014,1.035l-.014.013a4.63,4.63,0,0,0-.93,5.3A19.6,19.6,0,0,1,137.5,71a4.649,4.649,0,0,0,4.412,3.107.752.752,0,0,1,.752.751Z" transform="translate(-12.926 -4.793)" fill="#01074e"/>
    <path id="Trazado_207401" data-name="Trazado 207401" d="M148.4,114.667a11.817,11.817,0,1,1,11.816-11.817A11.829,11.829,0,0,1,148.4,114.667m0-19.786a7.97,7.97,0,1,0,7.969,7.969,7.978,7.978,0,0,0-7.969-7.969" transform="translate(-44.376 -29.577)" fill="#01074e"/>
    <path id="Trazado_207402" data-name="Trazado 207402" d="M68.139,60.763H83.967a1.979,1.979,0,0,0,1.4-3.384l-3.957-3.957a1.987,1.987,0,0,0-2.81,2.81l.593.573H68.139a1.979,1.979,0,1,0,0,3.957Z" transform="translate(-21.496 -17.168)" fill="#01074e"/>
    <path id="Trazado_207403" data-name="Trazado 207403" d="M83.962,70.438H68.134a1.979,1.979,0,0,0-1.4,3.384l3.957,3.957a1.987,1.987,0,0,0,2.81-2.81L72.9,74.4h11.06a1.979,1.979,0,1,0,0-3.957Z" transform="translate(-21.49 -22.886)" fill="#01074e"/>
    <path id="Trazado_207404" data-name="Trazado 207404" d="M68.139,94.91H72.1a1.979,1.979,0,0,0,0-3.957H68.139a1.979,1.979,0,1,0,0,3.957" transform="translate(-21.496 -29.551)" fill="#01074e"/>
    <path id="Trazado_207405" data-name="Trazado 207405" d="M88.655,94.91h7.914a1.979,1.979,0,1,0,0-3.957H88.655a1.979,1.979,0,1,0,0,3.957" transform="translate(-28.161 -29.551)" fill="#01074e"/>
    <path id="Trazado_207406" data-name="Trazado 207406" d="M98.473,105.607H94.516a1.979,1.979,0,0,0,0,3.957h3.957a1.979,1.979,0,1,0,0-3.957" transform="translate(-30.066 -34.312)" fill="#01074e"/>
    <path id="Trazado_207407" data-name="Trazado 207407" d="M76.053,105.607H68.139a1.979,1.979,0,1,0,0,3.957h7.914a1.979,1.979,0,0,0,0-3.957" transform="translate(-21.496 -34.312)" fill="#01074e"/>
    <path id="Trazado_207408" data-name="Trazado 207408" d="M72.1,120.261H68.139a1.979,1.979,0,0,0,0,3.957H72.1a1.979,1.979,0,0,0,0-3.957" transform="translate(-21.496 -39.073)" fill="#01074e"/>
    <path id="Trazado_207409" data-name="Trazado 207409" d="M96.569,120.261H88.655a1.979,1.979,0,1,0,0,3.957h7.914a1.979,1.979,0,0,0,0-3.957" transform="translate(-28.161 -39.073)" fill="#01074e"/>
    <path id="Trazado_207410" data-name="Trazado 207410" d="M108.588,174.041H76.931a1.979,1.979,0,0,1,0-3.957h31.657a1.979,1.979,0,1,1,0,3.957" transform="translate(-24.353 -55.261)" fill="#01074e"/>
    <path id="Trazado_207411" data-name="Trazado 207411" d="M179.509,156.456h3.957a1.979,1.979,0,0,0,0-3.957h-3.957a1.979,1.979,0,1,0,0,3.957" transform="translate(-57.68 -49.548)" fill="#01074e"/>
    <path id="Trazado_207412" data-name="Trazado 207412" d="M183.466,164.223h-3.957a1.979,1.979,0,0,0,0,3.957h3.957a1.979,1.979,0,0,0,0-3.957" transform="translate(-57.681 -53.357)" fill="#01074e"/>
  </g>
</svg>
